{"title":"La donna che visse due volte - Vertigo [DVDRip-XviD-Ita/Eng/Esp-","uid":5881443,"size":1584864495,"categoryP":"video","categoryS":"movies","magnet":"?xt=urn:btih:b87383d96c23d633e33ef1be72a6f19de87490df&amp;dn=La+donna+che+visse+due+volte+-+Vertigo+%5BDVDRip-XviD-Ita%2FEng%2FEsp-&amp;tr=udp%3A%2F%2Ftracker.openbittorrent.com%3A80&amp;tr=udp%3A%2F%2Fopen.demonii.com%3A1337&amp;tr=udp%3A%2F%2Ftracker.coppersurfer.tk%3A6969&amp;tr=udp%3A%2F%2Fexodus.desync.com%3A6969","seeders":5,"leechers":0,"uploader":"maxneb","files":5,"time":1286849862,"description":"La donna che visse due volte - Vertigo [DVDRip-XviD-Ita/Eng/Esp-Ac3-Multi Sub][Tntvillage.Scambioetico]\n\n\n\n\n\nGeneral\nComplete name                    : C:\\La donna che visse due volte - Vertigo [DVDRip-XviD-Ita-Eng-Esp-Ac3][RiP By MaX].aviFormat                           : AVI\nFormat/Info                      : Audio Video Interleave\nFile size                        : 1.48 GiB\nDuration                         : 2h 4mn\nOverall bit rate                 : 1 701 Kbps\nWriting application              : VirtualDubMod 1.5.10.2 (build 2540/release)\nWriting library                  : VirtualDubMod build 2540/release\n\nVideo\nID                               : 0\nFormat                           : MPEG-4 Visual\nFormat profile                   : Advanced Simple@L5\nFormat settings, BVOP            : Yes\nFormat settings, QPel            : No\nFormat settings, GMC             : No warppoints\nFormat settings, Matrix          : Default (H.263)\nCodec ID                         : XVID\nCodec ID/Hint                    : XviD\nDuration                         : 2h 4mn\nBit rate                         : 1 234 Kbps\nWidth                            : 656 pixels\nHeight                           : 368 pixels\nDisplay aspect ratio             : 16:9\nFrame rate                       : 25.000 fps\nColor space                      : YUV\nChroma subsampling               : 4:2:0\nBit depth                        : 8 bits\nScan type                        : Progressive\nBits/(Pixel*Frame)               : 0.204\nStream size                      : 1.07 GiB (73%)\nWriting library                  : XviD 1.2.1 (UTC 2008-12-04)\n\nAudio #1\nID                               : 1\nFormat                           : AC-3\nFormat/Info                      : Audio Coding 3\nMode extension                   : CM (complete main)\nCodec ID                         : 2000\nDuration                         : 2h 4mn\nBit rate mode                    : Constant\nBit rate                         : 96.0 Kbps\nChannel(s)                       : 1 channel\nChannel positions                : Front: C\nSampling rate                    : 48.0 KHz\nBit depth                        : 16 bits\nStream size                      : 85.3 MiB (6%)\nAlignment                        : Split accross interleaves\nInterleave, duration             : 40 ms (1.00 video frame)\nInterleave, preload duration     : 500 ms\n\nAudio #2\nID                               : 2\nFormat                           : AC-3\nFormat/Info                      : Audio Coding 3\nMode extension                   : CM (complete main)\nCodec ID                         : 2000\nDuration                         : 2h 4mn\nBit rate mode                    : Constant\nBit rate                         : 256 Kbps\nChannel(s)                       : 6 channels\nChannel positions                : Front: L C R, Side: L R, LFE\nSampling rate                    : 48.0 KHz\nBit depth                        : 16 bits\nStream size                      : 227 MiB (15%)\nAlignment                        : Split accross interleaves\nInterleave, duration             : 40 ms (1.00 video frame)\nInterleave, preload duration     : 500 ms\n\nAudio #3\nID                               : 3\nFormat                           : AC-3\nFormat/Info                      : Audio Coding 3\nMode extension                   : CM (complete main)\nCodec ID                         : 2000\nDuration                         : 2h 4mn\nBit rate mode                    : Constant\nBit rate                         : 96.0 Kbps\nChannel(s)                       : 1 channel\nChannel positions                : Front: C\nSampling rate                    : 48.0 KHz\nBit depth                        : 16 bits\nStream size                      : 85.3 MiB (6%)\nAlignment                        : Split accross interleaves\nInterleave, duration             : 40 ms (1.00 video frame)\nInterleave, preload duration     : 500 ms","torrent":{"xt":"urn:btih:b87383d96c23d633e33ef1be72a6f19de87490df","amp;dn":"La+donna+che+visse+due+volte+-+Vertigo+%5BDVDRip-XviD-Ita%2FEng%2FEsp-","amp;tr":["udp%3A%2F%2Ftracker.openbittorrent.com%3A80","udp%3A%2F%2Fopen.demonii.com%3A1337","udp%3A%2F%2Ftracker.coppersurfer.tk%3A6969","udp%3A%2F%2Fexodus.desync.com%3A6969"],"infoHash":"b87383d96c23d633e33ef1be72a6f19de87490df","infoHashBuffer":{"type":"Buffer","data":[184,115,131,217,108,35,214,51,227,62,241,190,114,166,241,157,232,116,144,223]},"announce":[],"urlList":[]}}